<svg width="48" height="48" viewBox="0 0 48 48" fill="none" xmlns="http://www.w3.org/2000/svg">
<g clip-path="url(#clip0_316_5359)">
<path d="M37.1309 17.7346H33.1025C32.8701 17.7345 32.6403 17.6918 32.4288 17.6096C32.2171 17.5275 32.0284 17.4076 31.8752 17.2581L30.2411 15.6803C30.1205 15.5646 29.9724 15.4722 29.807 15.409C29.6416 15.3456 29.4624 15.313 29.2811 15.313C29.0999 15.313 28.9207 15.3456 28.7553 15.409C28.5898 15.4722 28.442 15.5646 28.3211 15.6803L26.9207 17.0326C26.695 17.2528 26.4171 17.4291 26.1054 17.5501C25.794 17.6712 25.4558 17.7341 25.1135 17.7346H3.06668C2.43114 19.2927 2.0289 20.9135 1.86951 22.558H22.6814C22.8617 22.5578 23.0402 22.5263 23.2058 22.4654C23.3714 22.4045 23.5209 22.3156 23.6452 22.2038L25.5878 20.4715C25.7082 20.3654 25.8521 20.2812 26.0112 20.2236C26.1704 20.166 26.3413 20.1365 26.5141 20.1366H26.5893C26.7709 20.1374 26.9504 20.1704 27.1164 20.2336C27.2822 20.2967 27.431 20.3888 27.5532 20.5038L29.187 22.0815C29.34 22.2313 29.5286 22.3515 29.7402 22.4337C29.9521 22.5158 30.1819 22.5583 30.4145 22.558H47.3933C47.2381 20.913 46.8357 19.2919 46.1965 17.7346H37.161H37.1309ZM14.4591 32.7008C14.6393 32.6999 14.8174 32.668 14.983 32.6072C15.1484 32.5464 15.2981 32.4578 15.4228 32.3467L17.3581 30.6143C17.4789 30.509 17.6231 30.4253 17.782 30.3678C17.941 30.3104 18.1115 30.2803 18.2841 30.2795H18.3671C18.5486 30.2801 18.728 30.3131 18.894 30.3763C19.0598 30.4395 19.2086 30.5315 19.3307 30.6465L20.9573 32.2243C21.111 32.3732 21.2997 32.4926 21.5114 32.5747C21.7229 32.6567 21.9523 32.6997 22.1845 32.7008H45.2026C46.0797 31.1588 46.7126 29.5237 47.085 27.8387H24.9855C24.7549 27.8381 24.5273 27.7957 24.3171 27.7148C24.1069 27.6338 23.9191 27.5158 23.7658 27.3686L22.1319 25.7908C22.0112 25.6738 21.863 25.5799 21.6968 25.5154C21.5306 25.4511 21.3503 25.4177 21.168 25.4174C20.9866 25.4169 20.8071 25.45 20.642 25.5145C20.4769 25.579 20.3302 25.6733 20.2117 25.7908L18.8113 27.1432C18.5835 27.3622 18.304 27.5375 17.991 27.6573C17.6783 27.7774 17.3394 27.839 16.9966 27.8387H2.17822C2.54689 29.5278 3.17748 31.1673 4.05312 32.7137L14.4591 32.7008ZM30.7909 12.4603C30.9723 12.4603 31.1518 12.4289 31.3187 12.3681C31.4856 12.3072 31.6366 12.2181 31.7622 12.1062L33.6973 10.3802C33.8167 10.2728 33.9603 10.1871 34.1195 10.1284C34.2787 10.0697 34.4501 10.0393 34.6236 10.039H34.7063C34.8879 10.0385 35.0672 10.0718 35.2323 10.1361C35.3974 10.2006 35.5441 10.2949 35.6626 10.4126L37.2965 11.9902C37.4515 12.1374 37.6408 12.2551 37.8523 12.336C38.0636 12.417 38.2923 12.4594 38.5238 12.4603H42.8986C40.7703 10.0366 38.0118 8.06977 34.8415 6.71513C31.6711 5.36047 28.1757 4.65527 24.6317 4.65527C21.0877 4.65527 17.5923 5.36047 14.4217 6.71513C11.2514 8.06977 8.49293 10.0366 6.36473 12.4603H30.7909ZM21.9963 37.5306H16.0101C15.7788 37.5305 15.5503 37.4878 15.3399 37.4056C15.1295 37.3233 14.9421 37.2035 14.7904 37.0541L13.164 35.4764C13.0426 35.3606 12.8939 35.2681 12.7279 35.2047C12.5619 35.1413 12.3821 35.1087 12.2002 35.1087C12.0184 35.1087 11.8386 35.1413 11.6725 35.2047C11.5065 35.2681 11.3579 35.3606 11.2365 35.4764L9.82838 36.8545C9.60296 37.0748 9.32528 37.2515 9.01347 37.3726C8.70184 37.4936 8.36362 37.5564 8.02118 37.5565H7.93093C10.0677 39.517 12.6536 41.0802 15.5275 42.1492C18.4013 43.2182 21.5017 43.7697 24.6353 43.7697C27.7692 43.7697 30.8695 43.2182 33.7433 42.1492C36.6171 41.0802 39.2029 39.517 41.34 37.5565L21.9963 37.5306ZM-76.3861 42.483L-81.0319 32.8232H-101.806L-106.452 42.483H-111.828L-91.453 5.94324L-71.0099 42.483H-76.3861ZM-100.052 29.1589H-82.8464L-91.4981 13.5809L-100.052 29.1589ZM-63.5857 42.483V5.94324H-51.6889C-42.3898 5.94324 -37.503 9.58177 -37.503 16.453C-37.503 23.0604 -42.6909 26.8857 -51.749 26.8857H-58.5709V42.483H-63.5857ZM-58.5709 23.0604H-52.8936C-45.7104 23.0604 -42.5554 21.0511 -42.5554 16.453C-42.5554 11.7004 -45.7555 9.73632 -52.8785 9.73632H-58.5709V23.0604ZM-19.2964 9.8394H-34.0318V5.91748H0.446388V9.8394H-14.2891V42.483H-19.2964V9.8394ZM54.4567 35.8177L58.7707 33.3126L59.1027 33.9051C61.7604 38.0395 64.6584 39.7009 69.0641 39.7009C73.9577 39.7009 77.3986 36.8095 77.3986 33.2933C77.3986 29.9897 75.4636 27.7679 67.738 25.0309C58.8606 21.8819 55.8415 18.6297 55.8415 13.9802C55.8415 8.91838 60.4948 4.96439 68.5212 4.96439C74.4401 4.96439 78.4845 7.12818 80.7809 10.6443L77.2794 12.7115L76.2541 12.4991C74.4401 10.0776 72.2042 8.6802 68.402 8.6802C63.756 8.6802 61.0378 10.902 61.0378 13.8964C61.0378 16.6849 62.7839 18.2885 70.337 21.2315C80.1774 25.0502 82.5949 28.1994 82.5949 33.2611C82.5949 38.7865 77.0373 43.4876 69.1246 43.4876C62.4831 43.4876 57.8976 41.3173 54.4567 35.8434" fill="white"/>
</g>
<defs>
<clipPath id="clip0_316_5359">
<rect width="46.7841" height="47.071" fill="white" transform="translate(0.878906 0.666016)"/>
</clipPath>
</defs>
</svg>
