<svg width="27" height="31" viewBox="0 0 27 31" fill="none" xmlns="http://www.w3.org/2000/svg">
<g clip-path="url(#clip0_604_2484)">
<path d="M20.9202 11.2407H18.5953C18.4612 11.2406 18.3285 11.2125 18.2065 11.1584C18.0843 11.1043 17.9754 11.0254 17.887 10.9269L16.944 9.8878C16.8743 9.81165 16.7889 9.75078 16.6934 9.70914C16.5979 9.66739 16.4945 9.6459 16.3899 9.6459C16.2853 9.6459 16.1819 9.66739 16.0864 9.70914C15.991 9.75078 15.9056 9.81165 15.8359 9.8878L15.0277 10.7784C14.8974 10.9234 14.737 11.0396 14.5572 11.1192C14.3774 11.199 14.1822 11.2404 13.9847 11.2407H1.26108C0.894295 12.2668 0.662148 13.3343 0.570168 14.4173H12.5811C12.6852 14.4172 12.7881 14.3964 12.8837 14.3563C12.9793 14.3163 13.0656 14.2577 13.1374 14.1841L14.2585 13.0432C14.3279 12.9733 14.411 12.9178 14.5028 12.8799C14.5946 12.842 14.6933 12.8226 14.793 12.8227H14.8364C14.9412 12.8232 15.0448 12.8449 15.1406 12.8865C15.2363 12.9281 15.3222 12.9887 15.3927 13.0645L16.3356 14.1035C16.4239 14.2022 16.5327 14.2813 16.6549 14.3355C16.7771 14.3895 16.9098 14.4175 17.044 14.4173H26.8428C26.7532 13.334 26.521 12.2663 26.1521 11.2407H20.9375H20.9202ZM7.83588 21.0972C7.93983 21.0966 8.04261 21.0756 8.1382 21.0355C8.23367 20.9955 8.32005 20.9371 8.39203 20.864L9.5089 19.7231C9.57865 19.6537 9.66186 19.5986 9.75352 19.5607C9.8453 19.5229 9.94374 19.5031 10.0434 19.5026H10.0912C10.196 19.503 10.2995 19.5247 10.3953 19.5663C10.491 19.608 10.5769 19.6685 10.6474 19.7443L11.5861 20.7834C11.6748 20.8814 11.7837 20.9601 11.9058 21.0141C12.0279 21.0682 12.1603 21.0965 12.2943 21.0972H25.5785C26.0847 20.0816 26.45 19.0048 26.6648 17.8951H13.9108C13.7778 17.8947 13.6464 17.8668 13.5251 17.8135C13.4038 17.7601 13.2954 17.6824 13.2069 17.5855L12.264 16.5464C12.1943 16.4693 12.1088 16.4075 12.0129 16.365C11.917 16.3227 11.8129 16.3007 11.7077 16.3005C11.603 16.3002 11.4994 16.322 11.4041 16.3644C11.3088 16.4069 11.2242 16.469 11.1558 16.5464L10.3476 17.437C10.2161 17.5813 10.0548 17.6967 9.8742 17.7756C9.69372 17.8547 9.4981 17.8953 9.30026 17.8951H0.748322C0.96109 19.0075 1.32501 20.0872 1.83036 21.1057L7.83588 21.0972ZM17.2612 7.7672C17.3659 7.7672 17.4695 7.74653 17.5659 7.70644C17.6622 7.66634 17.7493 7.60765 17.8218 7.53397L18.9386 6.39731C19.0075 6.32652 19.0904 6.2701 19.1823 6.23146C19.2741 6.19281 19.373 6.17276 19.4731 6.17256H19.5209C19.6257 6.17225 19.7292 6.19415 19.8245 6.23652C19.9197 6.27899 20.0044 6.34109 20.0728 6.41859L21.0157 7.45761C21.1052 7.55454 21.2144 7.63204 21.3365 7.68536C21.4584 7.73868 21.5904 7.76658 21.724 7.7672H24.2488C23.0205 6.17101 21.4286 4.87567 19.5989 3.98353C17.7692 3.09138 15.7519 2.62695 13.7066 2.62695C11.6613 2.62695 9.64407 3.09138 7.81429 3.98353C5.9846 4.87567 4.39266 6.17101 3.16444 7.7672H17.2612ZM12.1857 24.278H8.73097C8.5975 24.2779 8.4656 24.2498 8.34418 24.1956C8.22277 24.1415 8.11459 24.0626 8.02705 23.9642L7.08844 22.9252C7.01836 22.8489 6.93252 22.7879 6.83672 22.7462C6.74092 22.7044 6.63718 22.6829 6.53217 22.6829C6.42728 22.6829 6.32354 22.7044 6.22764 22.7462C6.13184 22.7879 6.0461 22.8489 5.97602 22.9252L5.16338 23.8327C5.03329 23.9778 4.87302 24.0942 4.69308 24.1739C4.51323 24.2536 4.31803 24.295 4.12041 24.2951H4.06832C5.30152 25.5862 6.79385 26.6157 8.45248 27.3197C10.111 28.0237 11.9002 28.3869 13.7088 28.3869C15.5174 28.3869 17.3066 28.0237 18.9651 27.3197C20.6237 26.6157 22.116 25.5862 23.3493 24.2951L12.1857 24.278ZM-44.5926 27.5395L-47.2738 21.1778H-59.263L-61.9442 27.5395H-65.0469L-53.288 3.47519L-41.4899 27.5395H-44.5926ZM-58.2505 18.7645H-48.321L-53.314 8.5052L-58.2505 18.7645ZM-37.2053 27.5395V3.47519H-30.3394C-24.9727 3.47519 -22.1524 5.87144 -22.1524 10.3967C-22.1524 14.7482 -25.1465 17.2675 -30.3741 17.2675H-34.3111V27.5395H-37.2053ZM-34.3111 14.7482H-31.0346C-26.8891 14.7482 -25.0683 13.4249 -25.0683 10.3967C-25.0683 7.26675 -26.9151 5.97323 -31.026 5.97323H-34.3111V14.7482ZM-11.6451 6.04112H-20.1492V3.45822H-0.251152V6.04112H-8.75525V27.5395H-11.6451V6.04112ZM30.9192 23.1499L33.4089 21.5001L33.6005 21.8903C35.1343 24.6131 36.8068 25.7073 39.3494 25.7073C42.1736 25.7073 44.1594 23.8031 44.1594 21.4874C44.1594 19.3117 43.0427 17.8485 38.5841 16.046C33.4608 13.9721 31.7184 11.8303 31.7184 8.76819C31.7184 5.43455 34.4039 2.83053 39.0361 2.83053C42.452 2.83053 44.7861 4.25556 46.1114 6.57122L44.0906 7.93263L43.4989 7.79272C42.452 6.19798 41.1617 5.27769 38.9673 5.27769C36.286 5.27769 34.7173 6.74089 34.7173 8.71301C34.7173 10.5494 35.725 11.6055 40.0841 13.5437C45.7631 16.0587 47.1583 18.1327 47.1583 21.4662C47.1583 25.1051 43.9509 28.2012 39.3844 28.2012C35.5514 28.2012 32.905 26.7718 30.9192 23.1669" fill="black"/>
</g>
<defs>
<clipPath id="clip0_604_2484">
<rect width="27" height="31" rx="10" fill="white"/>
</clipPath>
</defs>
</svg>
